<svg fill="#000000" xmlns="http://www.w3.org/2000/svg"  viewBox="0 0 100 100" width="400px" height="400px"><path d="M70,17.921H31c-7.168,0-13,5.832-13,13v39c0,7.168,5.832,13,13,13h39c7.168,0,13-5.832,13-13v-39C83,23.753,77.168,17.921,70,17.921z M81,69.921c0,6.065-4.935,11-11,11H31c-6.065,0-11-4.935-11-11v-39c0-6.065,4.935-11,11-11h39c6.065,0,11,4.935,11,11V69.921z"/><path d="M77.5 47.921c-.276 0-.5.224-.5.5v18.663c0 5.424-4.413 9.837-9.837 9.837H33.837c-5.424 0-9.837-4.413-9.837-9.837V33.758c0-5.424 4.413-9.837 9.837-9.837H67.5c.276 0 .5-.224.5-.5s-.224-.5-.5-.5H33.837C27.861 22.921 23 27.783 23 33.758v33.326c0 5.976 4.861 10.837 10.837 10.837h33.326C73.139 77.921 78 73.06 78 67.084V48.421C78 48.145 77.776 47.921 77.5 47.921zM77.5 40.921c-.276 0-.5.224-.5.5v4c0 .276.224.5.5.5s.5-.224.5-.5v-4C78 41.145 77.776 40.921 77.5 40.921zM77 37.421v2c0 .276.224.5.5.5s.5-.224.5-.5v-2c0-.276-.224-.5-.5-.5S77 37.145 77 37.421z"/><path d="M46.775,40.961c-0.62-0.368-1.355-0.639-2.187-0.802c-0.806-0.158-1.668-0.238-2.563-0.238H39.5c-0.276,0-0.5,0.224-0.5,0.5v9c0,0.276,0.224,0.5,0.5,0.5h1.875c1.054,0,2.041-0.112,2.932-0.333c0.902-0.223,1.701-0.561,2.374-1.003c0.687-0.452,1.228-1.013,1.61-1.666c0.388-0.663,0.584-1.425,0.584-2.264c0-0.866-0.193-1.615-0.574-2.225C47.929,41.837,47.416,41.343,46.775,40.961z M47.427,46.414c-0.304,0.52-0.74,0.969-1.297,1.336c-0.577,0.38-1.271,0.672-2.063,0.867c-0.813,0.201-1.719,0.304-2.692,0.304H40v-8h2.025c0.831,0,1.628,0.074,2.371,0.219c0.718,0.142,1.347,0.371,1.868,0.681c0.51,0.304,0.899,0.677,1.19,1.141c0.28,0.448,0.421,1.018,0.421,1.694C47.875,45.325,47.729,45.9,47.427,46.414z"/><path d="M51.699 41.261c-.518-.97-1.245-1.791-2.162-2.443-.903-.641-1.973-1.123-3.179-1.435-1.188-.307-2.488-.462-3.866-.462H36.5c-.276 0-.5.224-.5.5v24c0 .276.224.5.5.5h3c.276 0 .5-.224.5-.5v-8.5h1.637c1.504 0 2.928-.188 4.231-.559 1.314-.374 2.475-.919 3.45-1.621.988-.711 1.77-1.587 2.324-2.604.559-1.025.843-2.188.843-3.459C52.484 43.386 52.22 42.237 51.699 41.261zM50.764 47.66c-.482.884-1.166 1.647-2.03 2.271-.881.635-1.937 1.129-3.139 1.471-1.214.346-2.546.521-3.958.521H39.5c-.276 0-.5.224-.5.5v8.5h-2v-23h5.493c1.293 0 2.51.145 3.616.431 1.088.28 2.047.712 2.851 1.281.789.562 1.414 1.268 1.858 2.099.442.829.667 1.82.667 2.947C51.484 45.78 51.242 46.783 50.764 47.66zM52.685 61.578c.336.154.74.303 1.201.439.46.137.942.255 1.431.353.487.098.987.172 1.488.223.498.05.975.075 1.418.075 1.028 0 1.997-.134 2.879-.399.891-.267 1.676-.65 2.333-1.14.668-.497 1.2-1.109 1.582-1.821.386-.719.582-1.536.582-2.432 0-.99-.262-1.853-.78-2.563-.487-.666-1.066-1.232-1.723-1.683-.635-.436-1.288-.798-1.942-1.075-.617-.261-1.08-.462-1.376-.6-.343-.17-.71-.343-1.103-.515-.356-.154-.69-.33-.995-.521-.276-.174-.501-.367-.67-.576-.131-.162-.195-.359-.195-.604 0-.756.335-1.011.588-1.137.983-.493 2.609-.471 4.07-.123.718.172 1.417.42 2.077.738.139.067.299.067.436 0 .138-.067.237-.193.27-.343l.54-2.448c.049-.221-.058-.447-.259-.552-.731-.377-1.557-.676-2.455-.888-1.679-.397-3.531-.438-5.2-.036-.797.192-1.512.502-2.126.919-.624.426-1.135.977-1.519 1.639-.391.674-.589 1.485-.589 2.411 0 .854.187 1.605.555 2.232.354.604.817 1.14 1.375 1.593.545.443 1.154.828 1.809 1.143.629.303 1.271.581 1.895.821.451.19.885.38 1.3.568.389.179.729.374 1.012.58.259.189.471.411.63.658.141.22.209.467.209.756 0 .629-.252 1.055-.794 1.34-.632.332-1.432.5-2.377.5-.937 0-1.796-.103-2.552-.306-.783-.211-1.482-.446-2.077-.698-.138-.061-.294-.054-.427.017-.132.069-.227.193-.258.34l-.54 2.557C52.356 61.249 52.473 61.481 52.685 61.578zM53.801 59.251c.5.186 1.05.359 1.646.52.841.227 1.787.341 2.812.341 1.109 0 2.065-.207 2.843-.615.87-.457 1.329-1.227 1.329-2.225 0-.479-.124-.914-.367-1.296-.226-.352-.522-.663-.882-.925-.336-.246-.735-.476-1.186-.683-.424-.193-.867-.387-1.341-.587-.613-.235-1.23-.503-1.835-.795-.584-.28-1.126-.622-1.611-1.018-.466-.378-.851-.822-1.144-1.322-.277-.472-.417-1.053-.417-1.727 0-.747.153-1.39.455-1.909.308-.532.718-.974 1.216-1.313.514-.35 1.119-.609 1.799-.773 1.518-.368 3.208-.324 4.735.036.679.161 1.311.374 1.882.637l-.323 1.464c-.551-.229-1.123-.414-1.707-.554-1.69-.401-3.544-.402-4.749.201-.521.26-1.141.824-1.141 2.031 0 .476.141.891.417 1.232.237.294.545.561.914.793.347.219.727.419 1.128.593.376.165.729.33 1.07.499.315.146.788.354 1.419.619.592.251 1.187.581 1.767.979.563.387 1.061.874 1.48 1.448.396.543.588 1.188.588 1.974 0 .729-.156 1.388-.462 1.959-.312.581-.749 1.083-1.298 1.491-.563.42-1.244.751-2.023.985-1.139.34-2.396.436-3.91.287-.468-.048-.937-.118-1.393-.209-.465-.093-.912-.203-1.342-.331-.256-.076-.491-.154-.701-.235L53.801 59.251z"/></svg>