<svg fill="#000000" xmlns="http://www.w3.org/2000/svg"  viewBox="0 0 100 100" width="400px" height="400px"><path d="M69.654,17.921h-39c-7.168,0-13,5.832-13,13v39c0,7.168,5.832,13,13,13h39c7.168,0,13-5.832,13-13v-39C82.654,23.753,76.822,17.921,69.654,17.921z M80.654,69.921c0,6.065-4.935,11-11,11h-39c-6.065,0-11-4.935-11-11v-39c0-6.065,4.935-11,11-11h39c6.065,0,11,4.935,11,11V69.921z"/><path d="M77.154 47.921c-.276 0-.5.224-.5.5v18.663c0 5.424-4.413 9.837-9.837 9.837H33.49c-5.424 0-9.837-4.413-9.837-9.837V33.758c0-5.424 4.413-9.837 9.837-9.837h33.663c.276 0 .5-.224.5-.5s-.224-.5-.5-.5H33.49c-5.976 0-10.837 4.861-10.837 10.837v33.326c0 5.976 4.861 10.837 10.837 10.837h33.326c5.976 0 10.837-4.861 10.837-10.837V48.421C77.654 48.145 77.43 47.921 77.154 47.921zM77.154 40.921c-.276 0-.5.224-.5.5v4c0 .276.224.5.5.5s.5-.224.5-.5v-4C77.654 41.145 77.43 40.921 77.154 40.921zM76.654 37.421v2c0 .276.224.5.5.5s.5-.224.5-.5v-2c0-.276-.224-.5-.5-.5S76.654 37.145 76.654 37.421z"/><path d="M46.341,40.756l-4.608,12.492c-0.057,0.153-0.035,0.324,0.059,0.459c0.093,0.134,0.247,0.214,0.41,0.214h9.216c0.164,0,0.317-0.08,0.41-0.214c0.094-0.135,0.116-0.306,0.059-0.459L47.28,40.756C47.134,40.364,46.487,40.364,46.341,40.756z M42.92,52.921l3.891-10.548l3.891,10.548H42.92z"/><path d="M48.432 37.921h-3.244c-.205 0-.389.125-.464.315l-9.55 24c-.062.153-.042.328.051.465.093.138.248.22.414.22h3.122c.209 0 .396-.13.469-.325l2.114-5.675h10.898l2.15 5.677c.074.194.26.323.468.323h3.122c.166 0 .321-.082.414-.22.093-.137.112-.312.051-.465l-9.55-24C48.821 38.046 48.636 37.921 48.432 37.921zM55.205 61.921l-2.15-5.677c-.074-.194-.26-.323-.468-.323h-11.59c-.209 0-.396.13-.469.325l-2.114 5.675h-2.038l9.152-23h2.565l9.152 23H55.205zM64.161 38.053c-.469-.515-1.096-.775-1.863-.775-.768 0-1.395.261-1.863.775-.457.501-.689 1.099-.689 1.777 0 .68.232 1.277.688 1.776.468.515 1.095.775 1.863.775.767 0 1.394-.261 1.863-.775.457-.5.689-1.098.689-1.776C64.85 39.153 64.619 38.554 64.161 38.053zM63.423 40.933c-.276.302-.644.449-1.125.449-.481 0-.849-.146-1.125-.45-.288-.313-.427-.674-.427-1.102s.14-.788.428-1.104c.275-.303.643-.449 1.124-.449.481 0 .849.147 1.125.449.288.315.428.677.428 1.104S63.711 40.618 63.423 40.933zM61.154 44.921c-.276 0-.5.224-.5.5v17c0 .276.224.5.5.5h3c.276 0 .5-.224.5-.5v-17c0-.276-.224-.5-.5-.5H61.154zM63.654 61.921h-2v-16h2V61.921z"/></svg>