<svg fill="#000000" xmlns="http://www.w3.org/2000/svg"  viewBox="0 0 100 100" width="400px" height="400px"><path d="M69.961,17.921h-39c-7.168,0-13,5.832-13,13v39c0,7.168,5.832,13,13,13h39c7.168,0,13-5.832,13-13v-39C82.961,23.753,77.129,17.921,69.961,17.921z M80.961,69.921c0,6.065-4.935,11-11,11h-39c-6.065,0-11-4.935-11-11v-39c0-6.065,4.935-11,11-11h39c6.065,0,11,4.935,11,11V69.921z"/><path d="M77.461 47.921c-.276 0-.5.224-.5.5v18.663c0 5.424-4.413 9.837-9.837 9.837H33.798c-5.424 0-9.837-4.413-9.837-9.837V33.758c0-5.424 4.413-9.837 9.837-9.837h33.663c.276 0 .5-.224.5-.5s-.224-.5-.5-.5H33.798c-5.976 0-10.837 4.861-10.837 10.837v33.326c0 5.976 4.861 10.837 10.837 10.837h33.326c5.976 0 10.837-4.861 10.837-10.837V48.421C77.961 48.145 77.737 47.921 77.461 47.921zM77.461 40.921c-.276 0-.5.224-.5.5v4c0 .276.224.5.5.5s.5-.224.5-.5v-4C77.961 41.145 77.737 40.921 77.461 40.921zM76.961 37.421v2c0 .276.224.5.5.5s.5-.224.5-.5v-2c0-.276-.224-.5-.5-.5S76.961 37.145 76.961 37.421z"/><path d="M38.372 38.052c-.276 0-.5.224-.5.5v23.976c0 .276.224.5.5.5h3.13c.276 0 .5-.224.5-.5V38.552c0-.276-.224-.5-.5-.5H38.372zM41.002 62.028h-2.13V39.052h2.13V62.028zM58.561 58.274c.076-.091.118-.205.118-.323v-9.824c0-.203-.123-.387-.312-.463-.444-.181-.957-.312-1.526-.389-.547-.072-1.127-.109-1.722-.109-1.934 0-3.502.612-4.662 1.82-1.156 1.202-1.742 2.93-1.742 5.134 0 1.956.383 3.556 1.139 4.754.802 1.272 2.064 1.918 3.752 1.918 1.126 0 2.126-.277 2.972-.824C57.385 59.445 58.052 58.875 58.561 58.274zM57.679 57.763c-.43.478-.982.937-1.644 1.364-.681.44-1.499.664-2.429.664-1.341 0-2.292-.475-2.907-1.451-.653-1.036-.985-2.456-.985-4.221 0-1.938.492-3.431 1.463-4.44.978-1.019 2.267-1.514 3.941-1.514.551 0 1.086.034 1.589.101.354.048.679.119.971.212V57.763z"/><path d="M58.36,63.033h3.06c0.276,0,0.5-0.224,0.5-0.5V37.421c0-0.276-0.224-0.5-0.5-0.5h-3.24c-0.276,0-0.5,0.224-0.5,0.5v7.471c-0.324-0.075-0.654-0.14-0.989-0.191c-0.562-0.088-1.212-0.132-1.931-0.132c-1.305,0-2.534,0.215-3.651,0.638c-1.126,0.425-2.123,1.056-2.962,1.874c-0.84,0.819-1.502,1.838-1.97,3.025c-0.465,1.182-0.701,2.532-0.701,4.015c0,1.325,0.171,2.562,0.507,3.674c0.34,1.122,0.834,2.11,1.468,2.938c0.64,0.837,1.41,1.495,2.289,1.956c0.884,0.464,1.883,0.699,2.968,0.699c1.376,0,2.574-0.285,3.561-0.849c0.579-0.331,1.111-0.711,1.592-1.136v1.129C57.86,62.809,58.083,63.033,58.36,63.033z M55.771,61.671c-0.833,0.476-1.864,0.717-3.064,0.717c-0.922,0-1.764-0.196-2.503-0.584c-0.75-0.394-1.409-0.959-1.959-1.679c-0.561-0.732-1-1.614-1.305-2.621c-0.308-1.019-0.464-2.156-0.464-3.384c0-1.356,0.212-2.584,0.631-3.648c0.416-1.056,1-1.956,1.738-2.676c0.74-0.722,1.621-1.278,2.618-1.654c1.004-0.381,2.113-0.573,3.297-0.573c0.667,0,1.265,0.04,1.777,0.12c0.517,0.08,1.023,0.191,1.505,0.329c0.152,0.042,0.313,0.014,0.438-0.081c0.125-0.095,0.199-0.242,0.199-0.399v-7.616h2.24v24.111h-2.06v-1.848c0-0.209-0.13-0.396-0.327-0.469c-0.197-0.074-0.417-0.016-0.553,0.144C57.372,60.571,56.629,61.18,55.771,61.671z"/></svg>