<svg xmlns="http://www.w3.org/2000/svg" viewBox="0 0 227.04 526.01"><title>logoIaryGraphic</title><g id="Calque_1" data-name="Calque 1"><path d="M364.91,423.46V80.64H478V302S376.42,306.43,364.91,423.46Z" transform="translate(-364.91 -49.59)" style="fill:#221f20"/><rect width="113.07" height="25.56" style="fill:#221f20"/><polygon points="32.68 34.05 54.36 80.53 3 115.36 3 34.05 32.68 34.05" style="fill:none;stroke:#fff;stroke-miterlimit:10"/><polygon points="54.53 85.53 3 120.95 3 151.42 54.53 85.53" style="fill:none;stroke:#fff;stroke-miterlimit:10"/><path d="M410.14,116a18,18,0,0,0-8.57,9.8,27.9,27.9,0,0,0-1.12,13,2.57,2.57,0,0,0,2.5,2.5,2.51,2.51,0,0,0,2.5-2.5,34.69,34.69,0,0,1-.23-5.94,18.49,18.49,0,0,1,1-5.18,14.55,14.55,0,0,1,2.19-4,13.3,13.3,0,0,1,4.26-3.34,2.5,2.5,0,1,0-2.52-4.32Z" transform="translate(-364.91 -49.59)" style="fill:#fff"/><path d="M403,102.75a49.67,49.67,0,0,0-13.45,20.68,53.93,53.93,0,0,0-2.11,24.78c.18,1.34,1.9,2.07,3.07,1.74a2.56,2.56,0,0,0,1.75-3.07,46.46,46.46,0,0,1,14.27-40.59c2.38-2.18-1.16-5.71-3.53-3.54Z" transform="translate(-364.91 -49.59)" style="fill:#fff"/><path d="M402.78,103.16a29.66,29.66,0,0,1-5.67-3.16c-.44-.32.08.08-.3-.23-.2-.15-.39-.31-.58-.48-.38-.32-.75-.66-1.1-1s-.69-.7-1-1.07c-.17-.18-.32-.37-.48-.56l-.3-.38c.11.15.12.16,0,0a22,22,0,0,1-1.58-2.47,18.87,18.87,0,0,1-1.11-2.38A31.17,31.17,0,0,1,389.05,85,2.52,2.52,0,0,0,386,83.26a2.58,2.58,0,0,0-1.75,3.08,27.86,27.86,0,0,0,5,12.68,26.65,26.65,0,0,0,11.06,8.45,2.59,2.59,0,0,0,3.42-.89,2.52,2.52,0,0,0-.89-3.42Z" transform="translate(-364.91 -49.59)" style="fill:#fff"/><path d="M395.65,115.27c-5.77-3.47-11.3-7.5-15.52-12.82A40.39,40.39,0,0,1,372.52,85a2.5,2.5,0,1,0-4.82,1.33,45,45,0,0,0,8.7,19.39c4.52,5.73,10.52,10.12,16.73,13.86,2.76,1.67,5.28-2.66,2.52-4.32Z" transform="translate(-364.91 -49.59)" style="fill:#fff"/><path d="M381.09,110.8c-.67,1.18-1.36,2.36-2.14,3.48-.18.26-.37.52-.56.77-.31.42.32-.38,0,0l-.35.42a16,16,0,0,1-1.33,1.4c-.23.21-.47.41-.71.61-.4.34.4-.29,0,0l-.39.28a14.24,14.24,0,0,1-1.86,1.07,2,2,0,0,1-.47.21l.28-.11-.34.13c-.34.13-.69.25-1,.36a20.43,20.43,0,0,1-2.55.58,2.51,2.51,0,0,0-1.74,3.08A2.56,2.56,0,0,0,371,124.8a18,18,0,0,0,9.16-4.3,28.25,28.25,0,0,0,5.27-7.18,2.5,2.5,0,1,0-4.32-2.52Z" transform="translate(-364.91 -49.59)" style="fill:#fff"/><path d="M389.89,146.75c-4.81-5.86-11.78-9.47-19.46-8.65a2.58,2.58,0,0,0-2.5,2.5,2.51,2.51,0,0,0,2.5,2.5A22.29,22.29,0,0,1,373,143c.39,0,.79,0,1.18.06l.64.06c.43,0-.32-.05.1,0a18.88,18.88,0,0,1,2.34.54c.36.11.71.23,1.06.36.12.05.53.21.22.08l.57.26a20.21,20.21,0,0,1,7.23,5.93,2.52,2.52,0,0,0,3.54,0,2.56,2.56,0,0,0,0-3.53Z" transform="translate(-364.91 -49.59)" style="fill:#fff"/><polygon points="3 157.89 3 209 78.67 184.29 44.58 137.37 26.43 127.99 3 157.89" style="fill:none;stroke:#fff;stroke-miterlimit:10"/><polygon points="3 213.11 5.2 327.5 24.43 235.53 3 213.11" style="fill:none;stroke:#fff;stroke-miterlimit:10"/><polygon points="6.04 211.85 24.41 230.8 54.2 222.81 6.04 211.85" style="fill:none;stroke:#fff;stroke-miterlimit:10"/><path d="M375.74,165.52l-7.59,14.57,5.42,13.68,8.12-10.38-5.45-17.82A.27.27,0,0,0,375.74,165.52Z" transform="translate(-364.91 -49.59)" style="fill:none;stroke:#fff;stroke-miterlimit:10"/><polygon points="10.44 121.63 5.52 130.51 9.3 139.76 14.37 133.14 10.44 121.63" style="fill:none;stroke:#fff;stroke-miterlimit:10"/><polygon points="14.02 116.36 17.78 129.29 42.71 97.13 14.02 116.36" style="fill:none;stroke:#fff;stroke-miterlimit:10"/><polygon points="33.81 105.38 16.78 117.4 18.55 124.7 33.81 105.38" style="fill:none;stroke:#fff;stroke-miterlimit:10"/><path d="M390.43,188.51V189c0,.3-.15.11,0-.14-.14.2,0,.7-.23.86,0,0,.28-.55,0-.11l-.17.31-.09.14c-.16.23-.14.2.07-.08,0,.13-.29.3-.36.39s-.32.38.09,0a2.12,2.12,0,0,1-.38.26c-.24.14-.48.28-.73.41a8.27,8.27,0,0,0-1.86,1.35,6,6,0,0,0,.43,8.48,6.92,6.92,0,0,0,9.06.11,6.23,6.23,0,0,0,2.07-3.93,8.68,8.68,0,0,0,0-2.1,5.21,5.21,0,0,1-.06-.88c0-.17.07-.6,0,0,.07-.48-.24.33,0-.07a11.27,11.27,0,0,0,1.13-2,3.74,3.74,0,0,0-.28-3.13,4,4,0,0,0-2.48-1.8,5.37,5.37,0,0,0-3.58.55,2.51,2.51,0,0,0-.9,3.42,2.58,2.58,0,0,0,3.42.9c-.47.22-.13,0,0,0s.49-.08-.07,0c.21,0,.38.1-.1,0,0,0-.45-.24-.22-.09s-.22-.22-.27-.28a1.26,1.26,0,0,1-.25-.61,1.64,1.64,0,0,1,0-.54c-.1.46.2-.3,0-.09a7,7,0,0,0-1.4,3.35,6.79,6.79,0,0,0,.05,1.56c0,.23.05.47.07.7s0,.26,0,.4a1.21,1.21,0,0,1,0,.19c0,.21,0,.14.05-.22a3.8,3.8,0,0,0-.15.58c-.07.32.23-.4.06-.12-.05.07-.08.15-.13.23a1.35,1.35,0,0,1-.18.29c.08,0,.32-.34.06-.11l-.24.24c-.32.32.3-.15,0,0-.09,0-.17.1-.25.14-.47.3.09,0,.08,0a4.94,4.94,0,0,1-.74.21s.64,0,.1,0h-.29c-.09,0-.5,0-.15,0s-.11,0-.21-.05l-.32-.09c-.07,0-.34-.14,0,0s0,0-.08,0l-.29-.17a1.37,1.37,0,0,0-.21-.15c.32.1.29.26.11.07l-.23-.24c-.32-.3.16.29,0,0-.05-.09-.11-.2-.17-.29s.08.18.08.22-.24-.63-.18-.65,0,.66.05.16c0-.06,0-.31,0-.34s-.11.5,0,.25a1.64,1.64,0,0,1,.1-.41c.07,0-.27.48-.05.14,0-.05.17-.28.17-.29s-.34.34-.14.17a2,2,0,0,0,.26-.25c.23-.24-.36.22-.07.06a1.82,1.82,0,0,0,.23-.15c.24-.15.49-.28.73-.41a7.39,7.39,0,0,0,4-6.71,2.5,2.5,0,0,0-5,0Z" transform="translate(-364.91 -49.59)" style="fill:#fff"/><path d="M381,210.2l0,.06-.4-.51a1.55,1.55,0,0,1,.21.35l-.25-.6a2.38,2.38,0,0,1,.11.38l-.09-.66a2,2,0,0,1,0,.54l.09-.66a1.83,1.83,0,0,1-.12.46l.25-.6a1.78,1.78,0,0,1-.28.48l.39-.51a2.2,2.2,0,0,1-.3.31l.51-.4a2.11,2.11,0,0,1-.52.31l.6-.25a3.79,3.79,0,0,1-.66.18l.67-.09a4,4,0,0,1-.85,0l.67.09a3.17,3.17,0,0,1-.8-.22l.6.25a3.27,3.27,0,0,1-.77-.44l.51.39a3.42,3.42,0,0,1-.58-.56l.39.5a3.4,3.4,0,0,1-.41-.69l.25.6a2.66,2.66,0,0,1-.17-.63l.09.67a2.41,2.41,0,0,1,0-.71l-.09.67a2.64,2.64,0,0,1,.19-.68l-.25.59a2.48,2.48,0,0,1,.32-.54l-.4.5a3.05,3.05,0,0,1,.44-.44l-.5.39a2.27,2.27,0,0,1,.48-.27l-.6.25a1.83,1.83,0,0,1,.46-.12l-.67.09a2.35,2.35,0,0,1,.53,0l-.66-.09a2.44,2.44,0,0,1,.57.16l-.6-.26a2.89,2.89,0,0,1,.51.31l-.5-.39a1.94,1.94,0,0,1,.32.32l-.39-.51a2,2,0,0,1,.26.45l-.25-.6a1.64,1.64,0,0,1,.1.38,2.46,2.46,0,0,0,1.15,1.49,2.5,2.5,0,0,0,1.93.25,2.54,2.54,0,0,0,1.49-1.14l.25-.6a2.5,2.5,0,0,0,0-1.33,4.28,4.28,0,0,0-1.89-2.68,4.46,4.46,0,0,0-2.62-.78,4.6,4.6,0,0,0-3.06,1.28,4.9,4.9,0,0,0-1.41,2.5,4.8,4.8,0,0,0-.13,1.37,5.92,5.92,0,0,0,.53,2,5.75,5.75,0,0,0,1.89,2.15,5.81,5.81,0,0,0,2.82,1,5.22,5.22,0,0,0,2.9-.59,4.36,4.36,0,0,0,2.19-2.77,4.56,4.56,0,0,0,0-2.14,4.11,4.11,0,0,0-1-1.82,2.51,2.51,0,0,0-1.77-.73,2.55,2.55,0,0,0-1.77.73,2.51,2.51,0,0,0-.73,1.77l.09.66a2.5,2.5,0,0,0,.64,1.1Z" transform="translate(-364.91 -49.59)" style="fill:#fff"/><path d="M380.35,221.65l.3-.07-.66.09a3,3,0,0,1,.6,0l-.67-.09a3.57,3.57,0,0,1,.66.18l-.6-.25a3,3,0,0,1,.52.31l-.5-.39a2.16,2.16,0,0,1,.37.37l-.39-.51.09.13,2.16-3.77a8.9,8.9,0,0,0-5.8,2.61,6.18,6.18,0,0,0-1.86,3.32,3.14,3.14,0,0,0,1.47,3.14,3,3,0,0,0,3.6-.41,2.5,2.5,0,0,0-1.77-4.26,2.73,2.73,0,0,0-1.77.73l-.05,0,.51-.39-.05,0,.6-.26-.11,0,.67-.09h-.12l.67.09a.42.42,0,0,1-.17-.05l.59.25a.21.21,0,0,1-.1-.06l.5.39a.8.8,0,0,1-.13-.13l.39.51a.3.3,0,0,1-.06-.11l.25.6a.37.37,0,0,1,0-.14l.09.66a.7.7,0,0,1,0-.25l-.09.66a2,2,0,0,1,.09-.33l-.25.59a5.54,5.54,0,0,1,.63-1l-.39.51a6.59,6.59,0,0,1,1.13-1.11l-.51.39a6.61,6.61,0,0,1,1.36-.79l-.59.25a6.26,6.26,0,0,1,1.59-.44l-.66.09.39,0a2.57,2.57,0,0,0,2.16-1.23,2.49,2.49,0,0,0,0-2.53A5.45,5.45,0,0,0,383,217.5a5,5,0,0,0-1.23-.6,4.63,4.63,0,0,0-2.78-.07,2.62,2.62,0,0,0-1.49,1.14,2.51,2.51,0,0,0,2.82,3.68Z" transform="translate(-364.91 -49.59)" style="fill:#fff"/><path d="M379.07,239.94l-.07-.08.39.51a1.35,1.35,0,0,1-.15-.26l.25.6a1.5,1.5,0,0,1-.06-.29l.09.66a1,1,0,0,1,0-.3l-.09.66a1.57,1.57,0,0,1,.08-.29l-.25.59a1.35,1.35,0,0,1,.15-.26l-.39.5a1.45,1.45,0,0,1,.21-.22l-.51.39L379,242l-.59.26.32-.1-.66.09a1.7,1.7,0,0,1,.45,0l-.66-.09a2.18,2.18,0,0,1,.44.11l-.59-.25a2.3,2.3,0,0,1,.4.23l-.51-.39a2.44,2.44,0,0,1,.42.43l-.39-.51a2.78,2.78,0,0,1,.3.53l-.25-.6a4.41,4.41,0,0,1,.2.71l-.09-.66a2.76,2.76,0,0,1,0,.76l.09-.67a1.56,1.56,0,0,1-.1.37l.26-.6a3.47,3.47,0,0,1-.18.33l.39-.51a1.6,1.6,0,0,1-.26.26l.5-.39-.23.14.6-.26a1.62,1.62,0,0,1-.43.12l.66-.09a1.77,1.77,0,0,1-.46,0l.67.09a3.45,3.45,0,0,1-.46-.12l.6.25a2.18,2.18,0,0,1-.49-.29l.5.39a2.13,2.13,0,0,1-.26-.26l.39.5a2.39,2.39,0,0,1-.21-.34l.25.6a2.56,2.56,0,0,1-.15-.56l.08.67a3.28,3.28,0,0,1,0-.7l-.09.67a4.18,4.18,0,0,1,.2-.69l-.25.6a3.47,3.47,0,0,1,.42-.72l-.39.5a4.61,4.61,0,0,1,.63-.62l-.5.4a5.63,5.63,0,0,1,1.26-.72l-.6.25c.57-.24,1.17-.4,1.76-.6a5.07,5.07,0,0,0,2.66-1.88,3.66,3.66,0,0,0-1.5-5.29,7.82,7.82,0,0,0-2.06-.64,8.2,8.2,0,0,0-3.16-.05,4.46,4.46,0,0,0-3.52,4.12,2.52,2.52,0,0,0,2.5,2.5,2.55,2.55,0,0,0,2.5-2.5,1.49,1.49,0,0,1,0-.21l-.09.66a1.58,1.58,0,0,1,.09-.31l-.25.6a1.79,1.79,0,0,1,.22-.38l-.39.51a2.46,2.46,0,0,1,.4-.39l-.51.39a3.43,3.43,0,0,1,.49-.28l-.6.25a3.58,3.58,0,0,1,.62-.17l-.66.09a4.89,4.89,0,0,1,1.21,0l-.66-.09a7.59,7.59,0,0,1,1.83.41l-.6-.25a2.5,2.5,0,0,1,.53.3l-.5-.39a1.89,1.89,0,0,1,.2.2l-.39-.5a1.14,1.14,0,0,1,.15.23l-.25-.59a2.29,2.29,0,0,1,.08.28l-.09-.67a1,1,0,0,1,0,.24l.09-.67a1.69,1.69,0,0,1-.09.34l.25-.59a1.83,1.83,0,0,1-.18.3l.39-.5a2.73,2.73,0,0,1-.35.33l.51-.39c-.15.1-.3.18-.45.26l.59-.26c-.93.4-1.91.63-2.84,1.05a6.67,6.67,0,0,0-2.47,1.93c-1.45,1.87-1.74,4.86.2,6.55s5.08,1.55,6.38-.82a5,5,0,0,0-2.78-6.85,3.94,3.94,0,0,0-4.25,1.31,3.7,3.7,0,0,0,.24,4.77,2.52,2.52,0,0,0,3.54,0,2.56,2.56,0,0,0,0-3.53Z" transform="translate(-364.91 -49.59)" style="fill:#fff"/><path d="M395.65,242.06a8.11,8.11,0,0,0,0-2,10.22,10.22,0,0,0-.58-2.56,1.78,1.78,0,0,0-.44-.85,1.83,1.83,0,0,0-.71-.64,2.49,2.49,0,0,0-3.42.89,2.47,2.47,0,0,0-.25,1.93,8.5,8.5,0,0,1,.49,1.86l-.09-.66a8.35,8.35,0,0,1,0,2.06,2.83,2.83,0,0,0,.74,1.77,2.5,2.5,0,0,0,3.53,0l.39-.51a2.43,2.43,0,0,0,.34-1.26Z" transform="translate(-364.91 -49.59)" style="fill:#fff"/><path d="M392.05,218.76c0,.05,0,.09,0,.13l.25-.6a1.61,1.61,0,0,1-.17.28l.39-.51a1.44,1.44,0,0,1-.27.28l.5-.39a1.41,1.41,0,0,1-.34.19l.6-.25a1.46,1.46,0,0,1-.41.11l.66-.09a1.28,1.28,0,0,1-.39,0l.67.09a1.28,1.28,0,0,1-.32-.09l.6.26a1.61,1.61,0,0,1-.28-.17l.51.39a1.48,1.48,0,0,1-.25-.25l.39.51a2.27,2.27,0,0,1-.19-.34l.25.6a1.82,1.82,0,0,1-.11-.4l.09.66a2.94,2.94,0,0,1,0-.42l-.09.67a1.33,1.33,0,0,1,.1-.34l-.25.59a1.17,1.17,0,0,1,.17-.28l-.39.5a.88.88,0,0,1,.22-.21l-.51.39a1.4,1.4,0,0,1,.26-.16l-.59.25.25-.07-.66.09a1.13,1.13,0,0,1,.26,0l-.66-.09.2,0-.6-.25a1.08,1.08,0,0,1,.18.11l-.51-.39a1,1,0,0,1,.15.14l-.39-.5a1,1,0,0,1,.1.17l-.25-.59a1.05,1.05,0,0,1,.05.19l-.08-.67v.17l.09-.67a1,1,0,0,1,0,.17,1.86,1.86,0,0,0-.05,1,2.26,2.26,0,0,0,.94,1.63,1.94,1.94,0,0,0,.85.45l.67.09a2.43,2.43,0,0,0,1.26-.34l.5-.39a2.52,2.52,0,0,0,.65-1.1,3.12,3.12,0,0,0,0-1.66,2.52,2.52,0,0,0-.41-.95,3.46,3.46,0,0,0-1.13-1.12,3.4,3.4,0,0,0-1.62-.45h-.2a4,4,0,0,0-.85.14,3.81,3.81,0,0,0-1.47.85,3.71,3.71,0,0,0-1.06,1.73,4.1,4.1,0,0,0,0,2,4.73,4.73,0,0,0,.34.91,4,4,0,0,0,.59.84,3.62,3.62,0,0,0,1.66,1.07,3.88,3.88,0,0,0,2,.07,4,4,0,0,0,1-.36,3.75,3.75,0,0,0,.88-.61,4.08,4.08,0,0,0,.66-.78,3.46,3.46,0,0,0,.44-1,1.86,1.86,0,0,0,.05-1,2.58,2.58,0,0,0-1.79-2.08l-.67-.09a2.43,2.43,0,0,0-1.26.34l-.51.39a2.5,2.5,0,0,0-.64,1.1Z" transform="translate(-364.91 -49.59)" style="fill:#fff"/><path d="M398.79,211.11c-.29-.57-.13-.32-.08-.08l-.09-.67a2.53,2.53,0,0,1,0,.55l.09-.66c-.11.83-.54,1.56-.68,2.38a4.12,4.12,0,0,0,1.43,4.11,3.39,3.39,0,0,0,4.44-.19,5,5,0,0,0,1.24-3.29l-.09.67c0-.11,0-.22.07-.33.08-.33.19-.19-.11.18l.05-.1c.14-.21.07-.12-.2.26l-.36.27c-.45.16-.56.21-.31.15l-.67.09a.89.89,0,0,1,.23,0l-.67-.09c.26,0,.3.17-.33-.17.27.15,0,.17-.26-.22.08.11.21.22.3.33s-.41-.56-.2-.27l.15.21a10.74,10.74,0,0,0,.66.85,3.41,3.41,0,0,0,4.23.83,3.75,3.75,0,0,0,1.56-4.42,8.25,8.25,0,0,0-1-1.76c-.08-.11-.16-.23-.23-.35l-.09-.17c-.08-.17,0-.07.13.31,0-.25-.15-.5-.19-.75l.09.67a4.51,4.51,0,0,1,0-.9l-.09.67a3.5,3.5,0,0,1,.13-.56c.13-.42-.09.08-.09.18,0-.08.11-.22.15-.28s.24-.34,0,0,0,0,.06,0c.2-.24-.13.1-.2.15.17-.1.15-.09-.07,0s-.24.1-.06,0l-.66.09h.24l-.66-.09c.37.08-.32-.18-.42-.25a.88.88,0,0,1-.41-.53c-.2-.46-.27-.55-.22-.29l-.09-.67v.12a2.51,2.51,0,0,0,2.5,2.5,2.56,2.56,0,0,0,2.5-2.5c.15-2.2-2.23-3.72-4.22-3.17a4.92,4.92,0,0,0-3.11,3.29,5.72,5.72,0,0,0,0,3.59,6.2,6.2,0,0,0,.84,1.64c.14.18.28.37.4.56s.17.21.17.3l-.14-.34c0,.06,0,.13.05.2l-.09-.67a2,2,0,0,1,0,.42l.09-.66c0,.07,0,.14,0,.2-.05.37.25-.49.12-.27s0,.06.11-.14a.79.79,0,0,1,.31-.32.86.86,0,0,1,.38-.22c.25-.09.29-.12.12-.08l.66-.09a.81.81,0,0,1-.22,0l.66.09c-.44-.09.49.24.26.12s.33.23.33.25-.1-.09-.12-.11l-.11-.13c-.26-.26.34.47.21.27l-.21-.28a5.06,5.06,0,0,0-1.72-1.69,3.32,3.32,0,0,0-3.89.57,5.08,5.08,0,0,0-1.22,3.19l.09-.67c0,.09-.07.67-.15.69l.16-.4c-.13.22-.06.13.2-.24l.34-.26c.44-.15.53-.2.29-.14l.66-.09h-.21l.66.09c-.37-.07.48.29.24.13s.46.46.19.14c0,0,.34.5.18.21.3.56.15.42.1.16l.09.66a2.81,2.81,0,0,1,0-.58l-.09.66c.11-.68.45-1.3.61-2a4.77,4.77,0,0,0-.35-3.4,2.52,2.52,0,0,0-3.42-.9,2.56,2.56,0,0,0-.9,3.42Z" transform="translate(-364.91 -49.59)" style="fill:#fff"/><path d="M400.72,226v.09l.09-.67a.86.86,0,0,1-.06.23L401,225l-.08.13.39-.51a1,1,0,0,1-.18.17l.51-.39-.22.13.59-.25a2.11,2.11,0,0,1-.43.12l.66-.09a3.38,3.38,0,0,1-.45,0l.66.08a4.8,4.8,0,0,1-.82-.24,5.8,5.8,0,0,0-1.51-.32,3.92,3.92,0,0,0-2.69.88,5.06,5.06,0,0,0-1.63,5.18,12.91,12.91,0,0,0,.89,2.41,8.71,8.71,0,0,0,1.18,2,4.47,4.47,0,0,0,5.13,1.4,3.72,3.72,0,0,0,1.26-5.93,2.5,2.5,0,0,0-3.54,3.54l.12.13-.39-.51a1.09,1.09,0,0,1,.08.15l-.25-.6a1.68,1.68,0,0,1,.07.24l-.09-.67a1.29,1.29,0,0,1,0,.34l.09-.67a1.89,1.89,0,0,1-.09.34l.25-.6a1.87,1.87,0,0,1-.17.31l.39-.51a1,1,0,0,1-.25.25l.51-.39a1,1,0,0,1-.22.14l.59-.26a1.77,1.77,0,0,1-.41.12l.67-.09a2.06,2.06,0,0,1-.43,0l.67.09a2.46,2.46,0,0,1-.53-.15l.6.26a3.33,3.33,0,0,1-.48-.28l.51.39a2.52,2.52,0,0,1-.56-.57l.39.51a8.26,8.26,0,0,1-.89-1.72l.25.59a7.8,7.8,0,0,1-.58-1.83l.09.66a4.07,4.07,0,0,1,0-.78l-.09.66a3.2,3.2,0,0,1,.19-.69l-.25.59a2.82,2.82,0,0,1,.26-.44l-.4.5a3,3,0,0,1,.35-.36l-.51.39a2.3,2.3,0,0,1,.43-.25l-.6.25a2.46,2.46,0,0,1,.39-.09l-.67.09h.37l-.66-.09a10.67,10.67,0,0,1,1.33.4,4.39,4.39,0,0,0,2.16.07,3.45,3.45,0,0,0,2.78-3.27,2.5,2.5,0,0,0-5,0Z" transform="translate(-364.91 -49.59)" style="fill:#fff"/><path d="M418.86,228.17a4.23,4.23,0,0,1,.7-.18l-.67.09a4.25,4.25,0,0,1,1.07,0l-.66-.09a4,4,0,0,1,1,.29l-.59-.25a4,4,0,0,1,.84.5l-.5-.39a3.76,3.76,0,0,1,.69.69l-.39-.5a3.36,3.36,0,0,1,.4.69l-.25-.6a3.94,3.94,0,0,1,.26.95l-.09-.66a4.26,4.26,0,0,1,0,1.07l.09-.67a4.58,4.58,0,0,1-.29,1l.25-.6a4.86,4.86,0,0,1-.5.85l.39-.51a4.24,4.24,0,0,1-.64.63l.51-.39-.07.05a2.71,2.71,0,0,0-1.15,1.49,2.5,2.5,0,0,0,1.74,3.08,2.45,2.45,0,0,0,1.93-.25,7.1,7.1,0,0,0,1.61-1.58,6.71,6.71,0,0,0,.77-1.48,6.45,6.45,0,0,0,.28-3.4,6.16,6.16,0,0,0-4.37-4.74,6.07,6.07,0,0,0-3.7,0,2.62,2.62,0,0,0-1.5,1.15,2.51,2.51,0,0,0,.9,3.42,2.49,2.49,0,0,0,1.92.25Z" transform="translate(-364.91 -49.59)" style="fill:#fff"/><path d="M414.55,233.78a6.54,6.54,0,0,0,4.56-.47,6,6,0,0,0,2.82-2.76,6.8,6.8,0,0,0,.65-2.47,6.1,6.1,0,0,0-.22-2,6.52,6.52,0,0,0-2.66-3.66,2.48,2.48,0,0,0-1.92-.26,2.58,2.58,0,0,0-1.5,1.15,2.55,2.55,0,0,0-.25,1.93,2.79,2.79,0,0,0,1.15,1.49l.15.11-.5-.39a4,4,0,0,1,.65.65l-.39-.5a3.82,3.82,0,0,1,.51.87l-.25-.59a4.36,4.36,0,0,1,.3,1.07l-.09-.66a4.35,4.35,0,0,1,0,1l.09-.67a4,4,0,0,1-.23.9l.25-.6a4,4,0,0,1-.46.8l.39-.5a4.4,4.4,0,0,1-.72.71l.5-.39a4.8,4.8,0,0,1-.88.51l.6-.25a4.54,4.54,0,0,1-1.08.29l.67-.09a4.13,4.13,0,0,1-.93,0l.67.09a4.86,4.86,0,0,1-.55-.11,2.5,2.5,0,0,0-1.33,4.82Z" transform="translate(-364.91 -49.59)" style="fill:#fff"/><path d="M419.5,207.26a17,17,0,0,0-.43,2.66,8.51,8.51,0,0,0,.11,1.59,5.54,5.54,0,0,0,.5,1.52,4.7,4.7,0,0,0,1.79,2,4.8,4.8,0,0,0,1.2.54,4.61,4.61,0,0,0,1.32.21,5.47,5.47,0,0,0,1-.12,1.61,1.61,0,0,0,.36-.1,4.26,4.26,0,0,0,.89-.42,3.63,3.63,0,0,0,.76-.65,1.85,1.85,0,0,0,.52-.8,1.88,1.88,0,0,0,.21-1,2.49,2.49,0,0,0-2.5-2.5,2.41,2.41,0,0,0-1.77.73,1.25,1.25,0,0,1-.23.23l.51-.39a1.5,1.5,0,0,1-.32.19l.6-.25a2.08,2.08,0,0,1-.41.11l.66-.09a2,2,0,0,1-.49,0l.67.09a2.48,2.48,0,0,1-.66-.18l.6.25a2.77,2.77,0,0,1-.55-.33l.5.4a2.79,2.79,0,0,1-.45-.46l.39.51a3.43,3.43,0,0,1-.28-.49l.26.59a3.58,3.58,0,0,1-.25-.92l.09.66a6.5,6.5,0,0,1,0-1.46l-.08.67a14.46,14.46,0,0,1,.28-1.46,2.65,2.65,0,0,0-.25-1.93,2.51,2.51,0,0,0-3.42-.9,2.5,2.5,0,0,0-1.15,1.5Z" transform="translate(-364.91 -49.59)" style="fill:#fff"/><path d="M423.81,213.1c3.22,0,3.22-5,0-5s-3.22,5,0,5Z" transform="translate(-364.91 -49.59)" style="fill:#fff"/><path d="M440.16,230.22a2.15,2.15,0,0,1-.51-.15l.6.25a2.84,2.84,0,0,1-.61-.35l.51.39a2.73,2.73,0,0,1-.48-.48l.39.51a2.84,2.84,0,0,1-.34-.58l.25.59c0-.09-.07-.18-.09-.27l-1.75,3.07.14,0-.67.09h.28l-.67-.09a1.67,1.67,0,0,1,.3.08l-.6-.25a1,1,0,0,1,.26.16l-.5-.4a1.8,1.8,0,0,1,.19.2l-.39-.51.11.19a1.93,1.93,0,0,0,.65.71,1.78,1.78,0,0,0,.85.44,1.86,1.86,0,0,0,1,.05,1.9,1.9,0,0,0,.93-.3l.51-.39a2.5,2.5,0,0,0,.64-1.1l.09-.67a2.43,2.43,0,0,0-.34-1.26,1.18,1.18,0,0,0-.11-.19,5.08,5.08,0,0,0-.5-.63,4.65,4.65,0,0,0-.66-.51,1,1,0,0,0-.17-.1,4.89,4.89,0,0,0-.75-.3,4.37,4.37,0,0,0-.86-.13h-.19a5,5,0,0,0-.86.12,1.94,1.94,0,0,0-.85.45,1.87,1.87,0,0,0-.64.7l-.25.6a2.5,2.5,0,0,0,0,1.33,6.1,6.1,0,0,0,.37.92,3.41,3.41,0,0,0,.17.33c.18.27.39.53.59.78a2.29,2.29,0,0,0,.27.27,7.15,7.15,0,0,0,.76.6,2.07,2.07,0,0,0,.32.19,4.58,4.58,0,0,0,1.29.49,1.85,1.85,0,0,0,1,0,1.79,1.79,0,0,0,.93-.29,1.83,1.83,0,0,0,.7-.65,1.71,1.71,0,0,0,.45-.85l.09-.66a2.43,2.43,0,0,0-.34-1.26l-.39-.51a2.5,2.5,0,0,0-1.1-.64Z" transform="translate(-364.91 -49.59)" style="fill:#fff"/><path d="M436.13,235.75c3.22,0,3.22-5,0-5s-3.22,5,0,5Z" transform="translate(-364.91 -49.59)" style="fill:#fff"/><path d="M410.26,242c.26-.38-.39.42-.09.11.09-.09.17-.19.26-.27l.18-.17-.31.24a1.51,1.51,0,0,1,.36-.24l.33-.18c.23-.12-.64.24-.14.07a4.33,4.33,0,0,1,.79-.19l-.67.09a4.59,4.59,0,0,1,1.11,0l-.66-.09.37.07.17,0c.18.06.07,0-.33-.14l.11.05c.21.14.14.08-.23-.18l-.25-.33c-.15-.44-.2-.53-.15-.28l-.09-.66a.6.6,0,0,1,0,.23l.09-.67c-.09.37.17-.32.25-.42s.17-.21.08-.12-.05.07.26-.2c.07,0,.55-.18.23-.11l-.39.08.66-.09a6.38,6.38,0,0,1-1.38-.05l.67.09a17.54,17.54,0,0,0-4.78-.49,5.34,5.34,0,0,0-4.11,2.57,2.5,2.5,0,1,0,4.32,2.52c.15-.28.25-.21-.14.12l.15-.16c.24-.24.25-.05-.16.1a1.88,1.88,0,0,0,.24-.14c.22-.13.36,0-.22.08l.28-.09a4.53,4.53,0,0,1,.64-.13l-.66.09a5.88,5.88,0,0,1,1.39,0l-.67-.09c1.79.25,3.55.83,5.36.43a3.81,3.81,0,0,0,2.48-1.86,3.35,3.35,0,0,0-.56-4,5.5,5.5,0,0,0-5.1-1,6.77,6.77,0,0,0-4,2.85,2.51,2.51,0,0,0,.9,3.42,2.56,2.56,0,0,0,3.42-.89Z" transform="translate(-364.91 -49.59)" style="fill:#fff"/><path d="M370.81,251.21a3.55,3.55,0,0,0-.79,1,1.61,1.61,0,0,0,0,1.45,1.31,1.31,0,0,0,1.1.76.85.85,0,0,0,.32,0,.66.66,0,0,0,.15-.05l.15-.06h0l.1,0s-.13,0,0,0h0l-.05,0,0,0s.05,0,.07,0l-.07,0,.06,0,.14.12a2.87,2.87,0,0,0,.44.34,1.19,1.19,0,0,0,1.4-.13c.81-.71.38-1.85-.08-2.62a1.61,1.61,0,0,0-1.26-.86,1.15,1.15,0,0,0-1.19.82.62.62,0,1,0,1.2.33c0-.09,0,0,0,.05s-.09.09,0,0-.12.07-.05,0,0,0,0,0l.07,0c.08,0,0,0-.05,0h.07c.06,0,0,0,0,0h0l.07,0c-.05,0-.12-.06,0,0s0,0,0,0a.2.2,0,0,1,.08.08l.06.07c.06.06-.07-.13,0,0l.12.19c.07.12.13.25.19.38a.54.54,0,0,1,.05.11c0-.1,0,0,0,0a1.83,1.83,0,0,1,.08.25c0-.18,0,.21,0,.07s0,0,0,.05,0,0,0,0,0,.07,0,.08,0,0,0,0l-.06.06,0,0-.05,0s.13,0,0,0c.14,0,.09,0,0,0s.13,0,.05,0-.1,0,0,0-.05,0-.08-.06l-.06,0c.07,0,.1.08,0,0a3.46,3.46,0,0,0-.6-.47,1.27,1.27,0,0,0-1.14,0c-.11,0,0,0,0,0h-.05c-.06,0-.07,0,0,0s.06,0,0,0,.13,0,.05,0,.13.08,0,0l-.07,0s.11.11,0,0l0,0,0,0s0-.07,0-.07,0,.12,0,0,0-.06,0-.08,0,.12,0,0v-.09c0-.11,0,.12,0,0l0-.09c0-.13-.06.08,0,0l.11-.19s.09-.12,0,0l.08-.1.37-.37a.63.63,0,0,0,0-.89.64.64,0,0,0-.88,0Z" transform="translate(-364.91 -49.59)" style="fill:#fff"/><path d="M404.73,195.44v0h0v0a.13.13,0,0,1,0,.06v.19s0,.06,0,.09c0-.13,0-.09,0,0s0,.2-.06.2.06-.12,0,0l-.05.09s-.07.07,0,0,0,0,0,0l-.06.05s.14-.08,0,0-.06,0-.06,0,.11-.05,0,0h0c-.1,0,0,0,.05,0h-.09c-.07,0,.13,0,.06,0l-.09,0-.07,0s.13.07.05,0l-.06,0c-.1-.06.08.09,0,0s0,.08,0,0,0,.12,0,0,0-.1,0,0,0,0,0,0,0,.16,0,.06,0,0,0,0l0,0s0,0-.05,0l.05,0c.06-.08,0,0-.05,0l.08,0c.05-.05-.13,0,0,0l.08,0c.07,0,0,0-.06,0h.12c.1,0-.05,0-.05,0l.06,0s-.11-.09,0,0,0,0,0,0l0,.07c.06.08,0,0,0,0l0,.12s0,.08,0,.08,0-.14,0-.05v.13h0s0-.06,0,0,0,.1,0,.1.08-.14,0,0a.52.52,0,0,1-.07.11s.11-.12,0,0l-.06.06-.06.05s.12-.07,0,0a.65.65,0,0,1-.16.09s.15-.05,0,0l-.11,0-.09,0s.17,0,0,0a.85.85,0,0,0-.16,0s.14,0,0,0l-.08,0c-.12,0,0,0,0,0l-.09,0c-.1-.06,0,0,0,0l-.06-.05s-.05-.06-.05-.06.07.12,0,0l-.09-.16c0-.07,0,.15,0,0l0-.1s0-.08,0-.1,0,.16,0,.05a.76.76,0,0,0,0-.15c0,.06,0,.13,0,.05a.47.47,0,0,0,0-.09c0-.07-.07.1,0,0a.53.53,0,0,0,.06-.1c0-.07-.09.07,0,0l.07-.07c0-.06,0,0,0,0l.06,0,.07,0c.11-.06-.11,0,0,0l.08,0s.15,0,0,0,.09,0,.11,0,.06,0,.08,0-.15,0-.06,0l.08,0c.1,0,0,0-.05,0l.09,0c.11.06,0,0,0,0l.07.07c.07.06-.07-.12,0,0l.09.16s.1.2,0,.07l.09.23a2.06,2.06,0,0,0,.57.86,1.15,1.15,0,0,0,1.25.2,1.07,1.07,0,0,0,.61-1,.92.92,0,0,0-.41-.72,1.11,1.11,0,0,0-.31-.15c.18.07-.08,0-.08-.06s.08.07,0,0,0,0,0,0,0-.08-.05-.09,0,0,0,.05a.14.14,0,0,0,0-.06s0-.06,0-.08,0,0,0,.06a.2.2,0,0,1,0-.07s0-.1,0,0h0a.64.64,0,0,0,0-.07c0-.07-.06.1,0,0s.08-.15,0-.07,0,0,0,0,0,0,.05-.05h0s0,0,.05,0l-.05,0,.09,0h0a.65.65,0,0,0,.63-.63.64.64,0,0,0-.63-.62,1.5,1.5,0,0,0-1.43,1.91,1.56,1.56,0,0,0,1,1c-.13-.05,0,0,0,0s-.06-.06-.08-.09a.33.33,0,0,1,0-.29c0,.1,0-.05,0-.05l0,0c0,.06,0,0,0,0-.08.1.12-.07,0,0s0,0,.05,0h.1c-.13,0,.08.06,0,0s-.08,0,0,0-.08-.08-.1-.09.05.07,0,0l-.12-.21s-.06-.15,0-.06,0-.09,0-.1a2.1,2.1,0,0,0-.77-1.08,1.65,1.65,0,0,0-2.16.46,1.7,1.7,0,0,0,.3,2.17,1.75,1.75,0,0,0,2.3-.06,1.65,1.65,0,0,0,.16-2.29,1.35,1.35,0,0,0-2.12.21,1.16,1.16,0,0,0,.18,1.39,1.42,1.42,0,0,0,2.33-.39,2.11,2.11,0,0,0,.14-1.4.63.63,0,0,0-.77-.43.63.63,0,0,0-.43.77Z" transform="translate(-364.91 -49.59)" style="fill:#fff"/><path d="M398.28,203.27a3.56,3.56,0,0,0-1.48-.26,1.88,1.88,0,0,0-1.2.54,1.51,1.51,0,0,0-.36,1.43,2.71,2.71,0,0,0,.28.68c.05.1.11.19.16.28a.93.93,0,0,0,.05.1l0,.11c0-.06,0-.06,0,0l0,.11v0h0v.06c0-.08,0-.09,0,0s0,.1,0,0l0,0c0,.05,0,.05,0,0s-.06.06-.06.07l.06-.05-.08.05c.08,0,.09,0,0,0H396c-.07,0-.06,0,0,0s0,0,.07.06l0,0c0-.06,0,0,0,.05v0c0-.07,0-.05,0,0s0-.07,0-.08v.09s0-.05,0-.08-.09.13,0,0l0,0,.07-.07c-.08.09,0,0,0,0s.14-.06,0,0l.24-.07c.15,0-.13,0,0,0h.5a2,2,0,0,0,1.39-.46,1.17,1.17,0,0,0,.26-1.48,1.12,1.12,0,0,0-.66-.49,1,1,0,0,0-.91.22.63.63,0,0,0,0,.89.65.65,0,0,0,.88,0,.37.37,0,0,1-.24.1c-.14,0-.11,0-.06,0s-.12-.07,0,0l0,0c.09.09-.07-.11,0,0-.06-.11,0-.09,0,0V205q0-.14,0,0c0,.05,0,.05,0,0s0,0,0,0l0,0c.05-.07.05-.07,0,0s-.09.05,0,0l-.12.08c-.06,0,0,0,0,0s-.12,0-.16,0-.12,0,0,0h-.36a2.76,2.76,0,0,0-1.3.26,1.31,1.31,0,0,0-.68,1.12,1.09,1.09,0,0,0,.76,1.07,1.19,1.19,0,0,0,1.28-.55,1.58,1.58,0,0,0,0-1.48c-.08-.18-.17-.34-.26-.51s-.1-.18-.14-.27c0,.09,0,0,0,0s0-.22,0-.1a.41.41,0,0,1,0-.11c0,.12,0-.05,0-.09v0c0,.05,0,0,0,0s0-.05,0,0a.12.12,0,0,1,.05-.05.2.2,0,0,1,.08-.08c-.07,0-.07.06,0,0l0,0s.09-.06.13-.06c-.15,0,0,0,0,0s.12,0,.14,0h.3c-.06,0-.05,0,0,0a6.05,6.05,0,0,1,.73.2.62.62,0,0,0,.34-1.2Z" transform="translate(-364.91 -49.59)" style="fill:#fff"/><path d="M381.44,198.62a1.68,1.68,0,1,0-1.63,2.93,1.81,1.81,0,0,0,.76.18l.32,0h.19s.26,0,.14,0a.7.7,0,0,1,.14,0s.13.06,0,0l.27.15a3.19,3.19,0,0,0,.59.28,1.21,1.21,0,0,0,1.39-.5,1.49,1.49,0,0,0,.05-1.39,2.5,2.5,0,0,0-1.08-1l-.3-.18-.11-.07-.08-.06h0l-.22-.22c.1.12,0,0,0,0s0-.06,0,0l0-.1a.63.63,0,0,0-.77-.43.64.64,0,0,0-.44.77c.23.8.94,1.13,1.58,1.56l.11.08h0a1.07,1.07,0,0,1,.16.14c.11.11,0-.06,0,0a.6.6,0,0,0,.06.11c.05.08,0,0,0,0l0,.13s0-.15,0,0a.34.34,0,0,0,0,.1c0,.07,0-.14,0,0l0,.08c-.07,0,.08-.12,0,0s0,0,0,0,0,.13,0,0,0,0,0,0l.05,0c-.09,0,.15,0,0,0s0,0,0,0l-.09,0c-.15,0,.07.05,0,0l-.42-.24a2.2,2.2,0,0,0-1.25-.26l-.26,0h-.15c-.1,0,.1.05,0,0l-.08,0s.13.08,0,0l-.08,0c-.11-.07.07.07,0,0a.2.2,0,0,0-.08-.08c-.06,0,.07.11,0,0s-.1-.12-.09-.15l0,.06a.14.14,0,0,1,0-.06l0-.11c0-.09,0,0,0,0a.57.57,0,0,1,0-.13c0-.1,0,0,0,0a.27.27,0,0,1,0-.12c0-.13,0,0,0,0a.3.3,0,0,1,.06-.11s-.09.09,0,0l.05-.05c-.06.07,0,0,0,0s.09-.07.11-.06h0l.13,0c.12,0,0,0,0,0h.27l.08,0a.63.63,0,0,0,.85-.23.64.64,0,0,0-.22-.85Z" transform="translate(-364.91 -49.59)" style="fill:#fff"/><path d="M372.16,213.36c-.24,0-.23-.06-.3-.2.05.1,0,0,0,0s.1,0,0,0l-.11,0c-.18.09-.54.13-.79.23a1.53,1.53,0,0,0-1,1.7,1.5,1.5,0,0,0,1.42,1.17,1.85,1.85,0,0,0,.94-.29.56.56,0,0,1,.62,0c.62.32,1.09.85,1.84.87a1.43,1.43,0,0,0,1.45-1,1.41,1.41,0,0,0-.88-1.48l-.33-.18s-.17-.12-.07-.05a.43.43,0,0,1-.1-.09,1.48,1.48,0,0,1-.28-.69,2.39,2.39,0,0,0-1-1.75,1.3,1.3,0,0,0-1.85.7.63.63,0,0,0,1.21.34l0,0h0l0,0s0,0,0,0l0,0c.06,0,.07,0,0,0H373c-.11,0,0,0,0,0H373c-.06,0-.06,0,0,0s-.07-.07,0,0,0,0,.08.1a9.58,9.58,0,0,1,.42,1.34,2.25,2.25,0,0,0,1.09,1.18l.27.15.1.07c-.1-.07,0,0,.05.05s0,0,0,0l0-.05v0l0-.11a.06.06,0,0,1,0,.06l-.06,0c-.1,0,.13,0-.06,0h0c-.15,0,.06,0-.11,0a2.59,2.59,0,0,1-.61-.33,2.69,2.69,0,0,0-1.66-.65,2.38,2.38,0,0,0-.88.31s-.21.08-.13.06a.27.27,0,0,1-.18,0l0,0c-.13-.13,0,.07-.06-.09,0,0,0,.07,0,0,0,.1,0,0,0-.06s-.07.06,0-.06l0,0c0-.06,0-.08.11-.1.26-.11.54-.13.8-.23a1.58,1.58,0,0,0,.8-.64,1.1,1.1,0,0,0,.07-.92,1,1,0,0,0-.89-.67c-.34-.05-.63.32-.63.62a.65.65,0,0,0,.63.63Z" transform="translate(-364.91 -49.59)" style="fill:#fff"/><path d="M386.55,226.5a14.45,14.45,0,0,0-.21,2.94,1.58,1.58,0,0,0,.58,1.25,1.13,1.13,0,0,0,1.4-.16,1.58,1.58,0,0,0,.43-1.42c0-.12,0-.24-.05-.36s0-.12,0-.18v-.08a1.62,1.62,0,0,1,0-.22s0-.15,0,0l0-.15c0-.11,0,0,0,0l0,0c0-.06,0-.06,0,0l0,0s0,0,0,0c.1,0,0,0,0,0l.15,0h0a2.73,2.73,0,0,0,.4-.05,1,1,0,0,0,.87-1,1.29,1.29,0,0,0-.91-1.15,2.15,2.15,0,0,0-1.61.38.63.63,0,1,0,.63,1.08,3.1,3.1,0,0,1,.39-.21c-.06,0,.06,0,.07,0l.1,0c-.1,0,0,0,0,0h.06c-.05,0-.05,0,0,0s-.09-.05,0,0l.06,0c-.09,0-.07,0,0,0s0,.07,0,0a.35.35,0,0,0,0,.08s0-.12,0-.05,0-.13,0,0,0-.15,0,0a.3.3,0,0,1,.15-.18c.05,0,0,0,0,0h-.07c.14,0-.07,0-.11,0a1.64,1.64,0,0,0-.32.05,1.19,1.19,0,0,0-.83.65,1.72,1.72,0,0,0-.18,1c0,.21.06.42.1.63a1.13,1.13,0,0,0,0,.14.71.71,0,0,1,0,.14s0,.19,0,.12v0c0-.14,0,0,0,0s-.07.11,0,0l-.07.08s.08-.06,0,0,.1,0,0,0,0,0,0,0,.17.07.08,0,.09.08,0,0,.06.09,0,0,0,0,0,.05a.22.22,0,0,1,0-.1s0-.23,0-.08c0-.07,0-.14,0-.2a14.63,14.63,0,0,1,.17-2.51.64.64,0,0,0-.44-.77.63.63,0,0,0-.77.44Z" transform="translate(-364.91 -49.59)" style="fill:#fff"/><path d="M373.25,230.14h0l0,0s.08.05,0,0,0,0,0,0l-.08-.08c0,.05,0,.05,0,0L373,230c0,.1,0,0,0,0h0a.41.41,0,0,1,0-.11c0,.14,0-.09,0,0a.45.45,0,0,1,.2-.21l.07,0,.06,0,.12,0h.26c.1,0-.07,0,0,0l.14,0a2.47,2.47,0,0,1,.85.51l.45-1.07a4.53,4.53,0,0,0-3.59,1.65,4.06,4.06,0,0,0-.91,1.83,1.36,1.36,0,0,0,.26,1.23,1.09,1.09,0,0,0,1.3.17,1.59,1.59,0,0,0,.75-1.08c0-.11.05-.21.07-.32s.08-.24.05-.16a.67.67,0,0,1,.06-.12s0-.08,0,0,.05-.05,0,0h0l.12,0A.63.63,0,0,0,373,231c-.74.12-1,.87-1.15,1.49a1,1,0,0,1-.1.32c.05-.08,0,0-.06.05s0,0,0,0,0,0,0,0,0,0,0,0a.76.76,0,0,1,.18.06s.1.12.05.07,0,0,0,0v-.09h0a.5.5,0,0,1,0-.12,2.47,2.47,0,0,1,.11-.36s.06-.16,0-.08a1.86,1.86,0,0,1,.1-.2c.06-.12.13-.23.2-.35l.11-.15s.06-.08,0,0l.05-.06a4.07,4.07,0,0,1,.56-.54c-.06.05.06,0,.08,0l.15-.11.35-.2.2-.1c-.08,0,.09,0,.11,0l.42-.12.22,0h.58a.63.63,0,0,0,.44-1.06,3.45,3.45,0,0,0-1.65-.88,2.09,2.09,0,0,0-1.73.47,1.52,1.52,0,0,0-.42,1.61,1.4,1.4,0,0,0,1.37,1,.63.63,0,0,0,.63-.62.64.64,0,0,0-.63-.63Z" transform="translate(-364.91 -49.59)" style="fill:#fff"/><path d="M410.55,220.25a3.88,3.88,0,0,0-1.63,1.37,2,2,0,0,0,0,2.14,1.62,1.62,0,0,0,1.81.62,1.42,1.42,0,0,0,.85-1.76,2.21,2.21,0,0,0-1.43-1.44c-.33-.13-.67-.2-1-.3a4.11,4.11,0,0,1-.46-.15l-.12-.06-.11-.07s-.1-.07-.06,0l-.06-.05a.46.46,0,0,0-.07-.07c.06.07-.06-.16,0-.05s0-.17,0-.07a.24.24,0,0,1,0-.12c0,.1,0,0,0,0s0,0,0,0h0s-.13.06,0,0l0,0,.15,0,.12,0c-.06,0,0,0,0,0a4.77,4.77,0,0,1,2.12.25l.13.05c.1,0-.06,0,0,0l.12.06s.13.08.06,0l.07.06s.09.11,0,0v0c.09,0-.13.1,0,0-.07,0,0,.06,0,0s.07-.05,0,0a.26.26,0,0,1,.09-.05h0s.1,0,0,0,0,0,0,0l-.13-.07-.11-.07c-.09-.06.05.05,0,0l-.21-.19a2.93,2.93,0,0,0-.48-.39,1.35,1.35,0,0,0-1.36-.11.63.63,0,0,0-.29.7l.25,1a.64.64,0,0,0,.77.44.65.65,0,0,0,.44-.77l-.25-1-.29.71-.09,0h0c-.09,0,.08,0,0,0s0,0,0,0l.15.1.19.16a2.8,2.8,0,0,0,.85.6,1.21,1.21,0,0,0,1.14,0,1.16,1.16,0,0,0,.52-1.08c-.1-.89-.89-1.29-1.66-1.51a5.72,5.72,0,0,0-2.29-.18,2,2,0,0,0-1.09.42,1.33,1.33,0,0,0-.43,1.05,2,2,0,0,0,1.47,1.66c.33.12.68.19,1,.29l.24.08.13,0s-.06,0,0,0l.22.11.09.07h0l.08.08,0,0,0,0a.43.43,0,0,1,0,.07l.05.1h0s0,.23,0,.09c0,0,0,.2,0,.12s-.07.14,0,0l0,.06c-.05.07.07-.05,0,0l0,0s-.13.07-.05,0,0,0,0,0,.1,0,0,0a.14.14,0,0,0-.09,0c-.06,0,.11,0,0,0s-.21-.08-.09,0c0,0-.19-.12-.09,0s-.13-.16-.07-.06l-.06-.1v0l0-.12c0,.08,0,0,0-.06v-.09c0-.19,0,.05,0-.06a.88.88,0,0,1,.16-.42.56.56,0,0,1,.05-.08s0,0,0,0l.05,0,.18-.19.1-.09,0,0a1.43,1.43,0,0,1,.22-.15,5.54,5.54,0,0,1,.53-.3.63.63,0,0,0-.63-1.08Z" transform="translate(-364.91 -49.59)" style="fill:#fff"/><path d="M390,246.66l-.53-1.32a.64.64,0,0,0-.92-.37,2.87,2.87,0,0,0-1,.72,1.62,1.62,0,0,0-.4,1.36,1.52,1.52,0,0,0,2,1,4.26,4.26,0,0,0,1.11-.6l.23-.14.13-.07a1.52,1.52,0,0,1,.28-.09c.11,0-.13,0,0,0h.1c-.08,0,.1,0,.1,0h0s.08.08,0,0l.07.07c.08.07,0,0,0,0a.24.24,0,0,0,.06.11c0,.06,0-.13,0,0s0,.15,0,.06,0,.05,0,.06v.1s0-.13,0,0a.94.94,0,0,0,0,.09c0-.09,0-.06,0,0l0,.07c0-.07,0,0,0,0s-.14.12-.08.08,0,0-.05,0l-.09,0c.07,0,0,0-.05,0l-.16,0c-.09,0,.1,0,0,0h-.16s-.13,0-.05,0l-.12,0a1.15,1.15,0,0,1-.39-.21l-.06,0-.13-.12-.08-.09s0,0,0,0a.36.36,0,0,1-.07-.1l-.38.92.91-.22a.63.63,0,0,0,.44-.77.65.65,0,0,0-.77-.44l-.91.23a.63.63,0,0,0-.37.92,2.47,2.47,0,0,0,2.3,1.19,1.75,1.75,0,0,0,1.6-1.72,1.51,1.51,0,0,0-1.93-1.49,3.56,3.56,0,0,0-1.19.58,3.78,3.78,0,0,1-.51.3c.07,0,0,0,0,0l-.12,0s-.15,0,0,0h-.16s-.12,0,0,0l-.15,0c-.15,0,.09,0,0,0l-.06,0,0,0s0,.12,0,0l0-.05c0,.06,0,.06,0,0s0,.16,0,0,0,.06,0-.06a.64.64,0,0,1,0-.09c-.05.09.09-.15,0-.07s.08-.08.08-.08.14-.13.06-.07a3.25,3.25,0,0,1,.63-.35l-.92-.37.53,1.31a.63.63,0,0,0,1.21-.33Z" transform="translate(-364.91 -49.59)" style="fill:#fff"/><path d="M427.78,222.89c-.15.07.12,0,0,0h.11c-.12,0,0,0,0,0h0s.08.05,0,0l0,0h0s.05.12,0,0c0,0,0,.16,0,0s0,.19,0,.05l0,.11c0-.11,0,0,0,0s.1-.08,0,0a1.47,1.47,0,0,0-.45.51,1.17,1.17,0,0,0,.49,1.48,1.48,1.48,0,0,0,1.52,0,2.57,2.57,0,0,0,1-1,1.29,1.29,0,0,0-.23-1.5,1.7,1.7,0,0,0-1.27-.46,3.12,3.12,0,0,0-1.42.56l-.29.18-.18.1-.11.05-.13,0-.14,0h-.17l-.1,0c.13,0,0,0,0,0l0,0-.06-.07s.06.11,0,0,0-.11,0,0,0-.17,0,0v0c0-.07,0-.06,0,0,0-.1,0,0,0,0s0-.05,0,0,0,0,.07-.06a.64.64,0,0,0,0-.89.65.65,0,0,0-.89,0,1.35,1.35,0,0,0,.67,2.21,2.22,2.22,0,0,0,1.61-.28l.53-.32.28-.17.15-.07h0l.13-.05.12,0c.19-.05,0,0,.05,0h.12l.08,0,.07,0c.09,0,0,0,0,0s.15.11.08.08l0,0c0,.06,0,0,0,0l0,.05v0c0-.06,0-.05,0,0s0-.09,0,0a.85.85,0,0,1-.15.18L429,224l-.09.06-.11.06c-.17.09.05,0-.06,0s-.15,0,0,0h-.07c-.07,0-.06,0,0,0h0l-.08-.07,0,0,0,0c0,.06,0,.07,0,0s0,.09,0,.12,0,.1-.06.08.12-.11.13-.12a1.51,1.51,0,0,0,.42-.52,1.45,1.45,0,0,0-.25-1.63,1.49,1.49,0,0,0-1.68-.26.63.63,0,0,0,.63,1.08Z" transform="translate(-364.91 -49.59)" style="fill:#fff"/><path d="M427.52,234c0-.1,0,.08,0,.09s0,0,0,0-.05.14,0,.06a.64.64,0,0,1-.08.14s0,0,0,0l0,0s-.14.13-.07.07l-.13.08s0,0,0,0l-.06,0s-.17,0-.1,0h-.11c.12,0-.05,0-.07,0s0,0,0,0l-.13-.08c.07.05,0,0,0,0s-.09-.1,0,0l-.09-.15c-.06-.09,0,0,0-.05a.57.57,0,0,1,0-.14c0,.13,0-.21,0-.09a1.09,1.09,0,0,1,0-.17c0,.08,0,0,0,0s-.05,0,0,0a.94.94,0,0,1,.1-.1s-.06,0,0,0l.16-.08c-.09,0,0,0,0,0l.14,0c-.16,0,.22,0,.06,0l.17.05c-.1,0,0,0,.05,0,.52.3,1.21-.32.86-.86,0-.06,0-.06,0,0s0-.07,0,0v-.11q0,.1,0,0l0-.08c0,.07,0,.07,0,0s0-.06,0,0a.3.3,0,0,1,.08-.08l0,0c-.05,0,0,0,0,0h0c.08,0,.08,0,0,0h.08c.07,0,.07,0,0,0l.11.06c.06,0,.07,0,0,0l.07.07s0,0,0,0l.07.11.06.11s0,0,0,0,0,.2,0,.09,0,.26,0,.15a1.33,1.33,0,0,1-.05.19c.05-.13-.11.16,0,0,0,.05,0,.06,0,0s.06,0,0,0,0,0,0,0a.27.27,0,0,1,.12,0c.06,0,.06,0,0,0a.21.21,0,0,1,.06.1c-.06-.13,0,.13,0,.21a.38.38,0,0,1-.25.17h-.07s.07.06.08.07l0,0a.67.67,0,0,1,.06.12c0-.07,0,.1,0,.11s0,.09,0,0v.17a.29.29,0,0,1,0,.09s0,.05,0,0a.34.34,0,0,1-.06.12c.05-.08-.14.12,0,0s-.17.08-.07,0-.24.05-.12,0c0,0-.18,0-.07,0l-.12,0c.06,0,.06,0,0,0s-.06-.05,0,0l-.08-.09c-.46-.54-1.35.16-1,.76,0,0,.08.17,0,.07a.61.61,0,0,1,.05.18c0-.12,0,.07,0,.08s0,0,0,.08a1.21,1.21,0,0,1-.05.18c0-.1-.05.07-.05.07a.3.3,0,0,1-.13.12c-.1.06,0,0-.09,0s-.2,0-.09,0h-.25l-.09,0h0l-.12-.07a.93.93,0,0,1-.13-.15s0-.09,0-.11,0,0,0-.09a1.21,1.21,0,0,1,0-.19c0,.11,0-.06,0-.09a.31.31,0,0,1,.1-.16l.3-.24a1.7,1.7,0,0,0,.7-.86,1.14,1.14,0,0,0-.24-1.09.62.62,0,0,0-.88,0,.64.64,0,0,0,0,.88.22.22,0,0,1-.08-.15c0-.06,0-.05,0,0s0,0-.07.06-.29.22-.43.33a1.79,1.79,0,0,0,.24,3,1.79,1.79,0,0,0,2.38-2.52l-1,.76a1.54,1.54,0,0,0,1.52.43,1.58,1.58,0,0,0,1.14-1.08,1.92,1.92,0,0,0-.24-1.58,1.17,1.17,0,0,0-1.74-.41,1,1,0,0,0,.09,1.48,1.11,1.11,0,0,0,1.58-.15,1.86,1.86,0,0,0-.64-2.8,1.46,1.46,0,0,0-1.7.35,1.41,1.41,0,0,0-.2,1.68l.85-.86a1.88,1.88,0,0,0-2.19.28,1.79,1.79,0,0,0,1.79,3,1.88,1.88,0,0,0,1.23-2.09.64.64,0,0,0-.77-.44.65.65,0,0,0-.43.77Z" transform="translate(-364.91 -49.59)" style="fill:#fff"/><path d="M388.64,210.42a4.8,4.8,0,0,0,.61,1.67,2.52,2.52,0,0,1,.35.67.42.42,0,0,1,0,.18c0,.09,0,.05,0,.14,0-.06,0,0,0,0l.11,0c-.08,0,0,0,0,0-.15.1,0-.08,0,0l0,0c-.05-.06-.05-.05,0,0a.75.75,0,0,1,0,.16c0,.07.05-.05,0,.07s-.06,0,0,0c-.12.06,0,0,.07,0s-.08,0,0,0l.12,0,.54-.22a1.25,1.25,0,0,0,.74-1.12,1.39,1.39,0,0,0-1.06-1.2,2.06,2.06,0,0,0-.89,0c-.29.06-.57.19-.86.22a.72.72,0,0,1-.29-.06c-.05,0-.06-.07,0,0s0,.14,0,.06,0,.06,0,.06l.12-.09,0,0,.13,0a.69.69,0,0,1,.25,0l.38,0a1.72,1.72,0,0,0,1.41-.76,1.43,1.43,0,0,0-1.45-2.09,1.57,1.57,0,0,0-1.24,1,1.61,1.61,0,0,0,.35,1.58,1.81,1.81,0,0,0,1.59.55,4.78,4.78,0,0,1,.84-.08c-.1,0,.16.05.09,0s.21.12.19.14,0-.21,0-.17a3.36,3.36,0,0,0-.28.27,1.24,1.24,0,0,0-.29,1,2.26,2.26,0,0,0,1.19,1.48,1.38,1.38,0,0,0,1.86-.26A1.1,1.1,0,0,0,393,212a.63.63,0,0,0-.63,1.08c-.17-.12-.06-.08-.13-.17v0c-.14-.09.09,0,0,0l0,0s0,.06,0,0,0-.09,0,0-.09,0,0,0a.27.27,0,0,1-.17,0,1.39,1.39,0,0,1-.51-.39.6.6,0,0,1-.14-.21c0-.06,0,0,0-.07s0,0,0,0l.15-.12a1.81,1.81,0,0,0,.25-.3,1.08,1.08,0,0,0,.12-.84,1.52,1.52,0,0,0-1.06-1,6.87,6.87,0,0,0-1.57,0,.38.38,0,0,1-.33-.14l-.09-.12a.74.74,0,0,1,0-.14c0,.08,0-.09,0,0a.29.29,0,0,1,.15-.2s.11,0,.07,0h.14s-.1,0,0,0-.06,0,0,0a.33.33,0,1,0,0,0l.06.1s0-.07,0,0c0-.15,0,.17,0,0,0,0,0,.1,0,0-.06.09,0,0,0,.05a.35.35,0,0,1-.11.07l-.2,0c-.25,0-.51,0-.76.08a1.73,1.73,0,0,0-1.19.71,1.16,1.16,0,0,0,.12,1.43,1.66,1.66,0,0,0,1.25.47,3.11,3.11,0,0,0,.75-.14l.34-.1.1,0s.22,0,.15,0a.42.42,0,0,1,.18.07c-.05,0,0,0,0,0s0,0,0,0,0-.09,0-.17c0,.09,0,0,0,0-.12.08.12,0,0,0a1.51,1.51,0,0,0-.18.09c.12-.06-.06,0-.09,0a4.2,4.2,0,0,0-.53.22,1.13,1.13,0,0,0-.66.95,1.1,1.1,0,0,0,1.06,1.09,1.23,1.23,0,0,0,1.24-.93,2.15,2.15,0,0,0-.36-1.72,4.3,4.3,0,0,1-.6-1.57.63.63,0,0,0-.77-.44.64.64,0,0,0-.44.77Z" transform="translate(-364.91 -49.59)" style="fill:#fff"/><path d="M391.25,178c-.85.3-1.8.81-1.79,1.86a1.23,1.23,0,0,0,2,1,1.55,1.55,0,0,0,.19-.24l.06-.1c0-.07.05,0,0,0s-.13.26-.44,0c0,0-.07,0-.06-.06l0,0a.35.35,0,0,1,.05.08l.08.13a1.48,1.48,0,0,0,.82.79,1.4,1.4,0,0,0,1.8-.91,1.32,1.32,0,0,0-.47-1.32A1.38,1.38,0,0,0,392,179c-.52.23-.33,1,.15,1.14a5.51,5.51,0,0,1,2.5,1.55l.44-1.07-1.48,0a.63.63,0,1,0,0,1.25l1.48,0a.63.63,0,0,0,.45-1.06,6.8,6.8,0,0,0-3.06-1.87l.15,1.14a.08.08,0,0,1-.08,0c.07,0,.07,0,0,0s.07,0,0,0l0,0c.07,0,.07,0,0,0l.09.09c-.07-.08.07.06,0,0s0,.07,0,0v.06c0-.06,0-.06,0,0s0-.08,0,0,0-.06,0,0,0,0,0,0l-.09.05c.07,0,.07,0,0,0s.1,0,0,0h-.07l-.07,0c.07,0,.08,0,0,0s.07.05,0,0l0,0c-.2-.28-.3-.61-.61-.81a.87.87,0,0,0-1.13.15,1.14,1.14,0,0,0-.18.25l-.06.1,0,0,.1-.06h.05c-.06,0-.06,0,0,0s0-.05,0,0,0-.11,0,0a.3.3,0,0,1,.06-.2,1.66,1.66,0,0,1,.82-.45.63.63,0,0,0-.34-1.21Z" transform="translate(-364.91 -49.59)" style="fill:#fff"/><path d="M391.47,179.54l.5.19h0l.11,0,.24.12a8.56,8.56,0,0,1,.93.53,4.43,4.43,0,0,1,.42.29l.12.09c.08.06-.06-.05,0,0l.21.17a9,9,0,0,1,.77.74.63.63,0,0,0,.89,0,.65.65,0,0,0,0-.88,9.7,9.7,0,0,0-3.9-2.52.63.63,0,1,0-.33,1.21Z" transform="translate(-364.91 -49.59)" style="fill:#fff"/><path d="M376,263.18a1.64,1.64,0,0,1,0,.23l0-.16a1.51,1.51,0,0,1-.13.46l.07-.15a2.22,2.22,0,0,1-.25.42l.1-.13a2.53,2.53,0,0,1-.36.37l.12-.1a1.9,1.9,0,0,1-.39.23l.15-.06-.24.08a.63.63,0,1,0,.33,1.21,2.56,2.56,0,0,0,1.85-2.4.63.63,0,0,0-.63-.62.62.62,0,0,0-.62.62Z" transform="translate(-364.91 -49.59)" style="fill:#fff"/><path d="M379.08,263.61c0-.16,0,0,0,0s0,.08,0,.13a2.68,2.68,0,0,1-.07.27c0,.08-.05.16-.07.24l-.06.14s-.06.15,0,.07,0,.05,0,.06l-.07.14-.12.22a3.82,3.82,0,0,1-.31.47c.05-.07,0,0,0,0l-.09.1-.19.21c-.12.12-.26.24-.39.35l0,0-.1.07-.24.15a2.92,2.92,0,0,1-.5.25.63.63,0,0,0-.22.86.64.64,0,0,0,.85.22,5.08,5.08,0,0,0,3-4,.63.63,0,0,0-.63-.63.65.65,0,0,0-.62.63Z" transform="translate(-364.91 -49.59)" style="fill:#fff"/><path d="M382.64,264.4a6.08,6.08,0,0,1-.16.74l-.12.36s-.07.18,0,.09l-.08.17a4.71,4.71,0,0,1-.81,1.22,4.65,4.65,0,0,1-2.45,1.45.62.62,0,1,0,.33,1.2,6,6,0,0,0,4.52-4.9.64.64,0,0,0-.43-.77.63.63,0,0,0-.77.44Z" transform="translate(-364.91 -49.59)" style="fill:#fff"/><path d="M382.34,267.58a13.65,13.65,0,0,1,1.07,6.05c0,.81,1.21.8,1.25,0a14.67,14.67,0,0,0-1.11-6.38.65.65,0,0,0-.77-.44.64.64,0,0,0-.44.77Z" transform="translate(-364.91 -49.59)" style="fill:#fff"/><path d="M383.79,269.38a5.32,5.32,0,0,0,3.88-3.71.62.62,0,0,0-.43-.77.63.63,0,0,0-.77.43l-.09.29-.05.14,0,0a5.28,5.28,0,0,1-.27.53l-.17.25-.08.12c.08-.12,0,0,0,0a5.62,5.62,0,0,1-.41.44l-.22.2-.12.09,0,0a3.36,3.36,0,0,1-.51.32l-.26.14-.07,0c.08,0-.07,0-.08,0l-.6.18a.63.63,0,0,0-.44.77.64.64,0,0,0,.77.43Z" transform="translate(-364.91 -49.59)" style="fill:#fff"/><path d="M385.49,267.94a4,4,0,0,0,6.24-.75c.42-.69-.66-1.32-1.08-.64a2.74,2.74,0,0,1-4.28.51.62.62,0,0,0-.88.88Z" transform="translate(-364.91 -49.59)" style="fill:#fff"/><path d="M384.6,272.65a4.15,4.15,0,0,0,4.85-3.29.64.64,0,0,0-.44-.77.63.63,0,0,0-.77.44c0,.2-.1.4-.16.6s0,0,0,.06a.61.61,0,0,0-.07.14l-.15.27-.16.24h0l0,0-.1.12a2.39,2.39,0,0,1-.22.23l-.12.1-.05,0s0,0,0,0a3.08,3.08,0,0,1-.55.33l-.11.05-.11,0-.32.1-.33.06H385l-.1,0a.65.65,0,0,0-.77.44.63.63,0,0,0,.44.77Z" transform="translate(-364.91 -49.59)" style="fill:#fff"/><path d="M387.7,272.28a9.45,9.45,0,0,1,2.65,7.68.63.63,0,0,0,.62.63.65.65,0,0,0,.63-.63,10.62,10.62,0,0,0-3-8.57c-.56-.57-1.45.31-.88.89Z" transform="translate(-364.91 -49.59)" style="fill:#fff"/><path d="M390.78,274.65a8,8,0,0,1,6.69,3.34c.46.65,1.54,0,1.08-.63a9.24,9.24,0,0,0-7.77-4,.63.63,0,0,0,0,1.25Z" transform="translate(-364.91 -49.59)" style="fill:#fff"/><path d="M393.2,273.52a6.59,6.59,0,0,0-.08-6.65c-.41-.69-1.5-.06-1.07.63a5.31,5.31,0,0,1,.07,5.38.63.63,0,0,0,1.08.64Z" transform="translate(-364.91 -49.59)" style="fill:#fff"/><path d="M393.55,270.75a4.08,4.08,0,0,0,7.39-2,.63.63,0,1,0-1.25,0,2.84,2.84,0,0,1-5.06,1.35.64.64,0,0,0-.85-.23.64.64,0,0,0-.23.86Z" transform="translate(-364.91 -49.59)" style="fill:#fff"/><path d="M396.13,275.57a8.59,8.59,0,0,1,6.81,1.2c.67.45,1.3-.64.63-1.08a9.82,9.82,0,0,0-7.77-1.32.62.62,0,0,0,.33,1.2Z" transform="translate(-364.91 -49.59)" style="fill:#fff"/><path d="M401.15,274.63a4.53,4.53,0,0,1,3.74-1.69,4.46,4.46,0,0,1,3.42,2c.44.67,1.53.05,1.08-.63A5.8,5.8,0,0,0,405,271.7a5.72,5.72,0,0,0-4.76,2,.66.66,0,0,0,0,.89.64.64,0,0,0,.89,0Z" transform="translate(-364.91 -49.59)" style="fill:#fff"/><path d="M404.29,271.51c-.16,0,0,0,0,0l-.15,0-.26-.07-.24-.08c-.05,0-.13-.08,0,0l-.11,0a3.35,3.35,0,0,1-.45-.27L403,271s0,0,.05,0l-.07-.05-.19-.17-.17-.18a.39.39,0,0,1-.08-.1l-.06-.06.05.06a1.77,1.77,0,0,1-.16-.22l-.14-.24a.82.82,0,0,1-.11-.23c0,.08,0,.1,0,.06l0-.06a.56.56,0,0,0,0-.12,2.4,2.4,0,0,1-.12-.53.63.63,0,1,0-1.21.33,3.89,3.89,0,0,0,1.19,2.2,4,4,0,0,0,2.39,1.09.62.62,0,0,0,.62-.62.64.64,0,0,0-.62-.63Z" transform="translate(-364.91 -49.59)" style="fill:#fff"/><path d="M408.92,272.83s0-.06,0-.08l0,.16a1.48,1.48,0,0,1,0-.42l0,.17a1.74,1.74,0,0,1,.13-.46l-.06.15a1.87,1.87,0,0,1,.22-.39l-.09.12a2.34,2.34,0,0,1,.31-.32l-.12.1a1.65,1.65,0,0,1,.36-.22l-.15.07.1,0a.65.65,0,0,0,.38-.29.66.66,0,0,0,.06-.48.65.65,0,0,0-.77-.44,2.41,2.41,0,0,0-1.28,1.05,2.33,2.33,0,0,0-.28,1.65.58.58,0,0,0,.28.37.7.7,0,0,0,.49.07.67.67,0,0,0,.37-.29.73.73,0,0,0,.06-.48Z" transform="translate(-364.91 -49.59)" style="fill:#fff"/><polygon points="7.13 225.1 8.04 297.95 19.15 236.52 7.13 225.1" style="fill:none;stroke:#fff;stroke-miterlimit:10"/></g><g id="Calque_2" data-name="Calque 2"><path d="M570.87,344.51S425.14,289.89,405.74,428.1c0,0-14.57,150.27,148.32,111.62l-.58-79.28-53.79,1V433.87l87.61-.48V560.92S378.93,636.83,369.91,442c0,0-2-179.31,209-125Z" transform="translate(-364.91 -49.59)" style="stroke:#da346a;stroke-miterlimit:10;stroke-width:0.25px"/></g><g id="Calque_3" data-name="Calque 3"><rect x="134.78" y="339.68" width="5.1" height="21.7"/><polygon points="141.37 361.39 146.59 361.39 154.89 344.71 163.19 361.39 168.31 361.39 157.41 339.68 152.37 339.68 141.37 361.39"/><polygon points="198.05 341.73 201.78 338.84 212.68 347.61 223.31 338.84 227.04 341.82 215.11 351.52 215.11 361.39 210.07 361.39 210.07 351.33 198.05 341.73"/><path d="M559.25,392c-1.38-1.82-2.87-2.29-5.8-3.29l-.72-.12-17.86-.2v4h5.06v17.71h5v-3.72h3.26l5.59,4.55,3.64-2.88-2.8-2.42S566.28,401.26,559.25,392Zm-7.9,10.36H545v-10l6.07.25s4.33-.06,5.3,4.14S551.35,402.4,551.35,402.4Z" transform="translate(-364.91 -49.59)"/></g><g id="Calque_4" data-name="Calque 4"><rect x="206.8" y="367.39" width="2.73" height="11.12"/><polygon points="163.62 378.51 166.17 378.51 170.44 370.12 174.62 378.51 177.29 378.51 171.69 367.41 169.1 367.41 163.62 378.51"/><path d="M526.57,418.53c-.7-.92-1.45-1.15-2.93-1.66l-.36-.06-9-.1v2h2.55v8.94h2.55V425.8H521l2.83,2.3,1.83-1.45-1.41-1.23S530.12,423.19,526.57,418.53Zm-4,5.24h-3.23v-5.06l3.07.13a2.74,2.74,0,0,1,2.67,2.09C525.58,423.05,522.58,423.77,522.58,423.77Z" transform="translate(-364.91 -49.59)"/><polygon points="192.49 367.48 195.09 367.48 195.09 372.01 203.53 372.01 203.53 367.48 206.1 367.48 206.1 378.51 203.5 378.51 203.5 374.1 195.09 374.1 195.09 378.51 192.49 378.51 192.49 367.48"/><path d="M556.55,421.24c-.14-.87-.54-3.64-5.19-4.16H543v2.09h2.64l0,8.94h2.64v-1.86s7.71,1.06,8.35-4.18A4.5,4.5,0,0,0,556.55,421.24ZM551,424.15h-2.77v-5h3c2,.32,2.79,1.4,2.77,2.45C554,424,551,424.15,551,424.15Z" transform="translate(-364.91 -49.59)" style="fill:#020202"/><path d="M587.5,418.67l-1.81,1.5a4.88,4.88,0,0,0-6.79.95,2.84,2.84,0,0,0,.22,3.28,5,5,0,0,0,6.55.59l1.83,1.48s-1.72,1.77-5.47,1.63c-2.85-.11-5.93-2.16-6.17-5.51a2.17,2.17,0,0,1,0-.36,5.21,5.21,0,0,1,1.93-3.5A7.85,7.85,0,0,1,587.5,418.67Z" transform="translate(-364.91 -49.59)"/><path d="M505.17,423.58v-2.06h8.1v6.58h-2.59v-1.18s-7.08,3.69-10.55-2.4c0,0-2.81-6.28,6.31-7.49v2.09s-5.09.33-4,4.41c0,0,.5,2.26,4.16,2.48a4.3,4.3,0,0,0,3.86-2.37Z" transform="translate(-364.91 -49.59)" style="fill:#020202"/></g></svg>